<svg
   viewBox="0 0 190 190"
   version="1.1"
   xmlns="http://www.w3.org/2000/svg">
  <path
      fill="#E20281"
     d="M 189.79325,69.999646 C 188.28386,39.782774 152.4503,37.010717 126.9648,41.48084 101.0584,46.02353 43.817598,58.896905 24.210012,64.91996 v 0 c -29.5637702,8.7806 -31.7552913,26.675606 -7.430855,38.03959 25.267808,12.49602 81.637798,42.26298 112.565833,46.68956 12.23478,1.75612 22.27805,-0.42089 28.17049,-9.39016 4.09277,-6.13916 34.12097,-55.571756 32.27777,-70.259304 z M 12.729922,75.122872 C 29.971827,65.079607 51.596773,64.078184 73.874822,70.768856 66.937423,81.857083 67.082557,97.31384 73.395881,112.65449 57.997177,111.97236 -19.489797,95.789935 12.642842,75.195439 Z M 153.50978,125.91973 a 59.606481,59.606481 0 0 0 -7.56147,-12.11868 98.255631,98.255631 0 0 0 31.07316,-18.794839 c -7.5905,15.732509 -18.21431,34.106459 -22.23451,40.637479 a 16.632342,16.632342 0 0 0 -1.23363,-9.75299 z m -77.690164,-8.20007 a 53.031916,53.031916 0 0 0 9.564322,12.53957 C 74.455357,125.62946 61.843225,119.88216 48.389314,113.39467 a 253.33117,253.33117 0 0 0 27.430302,4.32499 z m 2.74303,-45.499466 c 26.893314,11.247875 30.782904,13.062049 58.982414,39.186146 -19.09962,4.44109 -37.734813,3.30905 -58.61958,1.77063 C 72.089675,98.982879 71.393033,82.466645 78.562646,72.220194 Z M 90.869998,54.67351 A 54.729982,54.729982 0 0 0 76.7775,66.574487 109.77926,109.77926 0 0 0 54.688125,62.13339 c 8.31617,-1.88674 23.700361,-5.398981 38.170212,-8.620952 -0.740186,0.406375 -1.364262,0.783723 -1.988339,1.161072 z m 34.324162,63.8589 a 79.446281,79.446281 0 0 0 15.86313,-3.04781 c 36.06578,46.41382 -46.660534,29.91209 -59.722587,2.58338 a 268.49766,268.49766 0 0 0 43.859457,0.40638 z m 17.41606,-8.59192 c -5.05065,-6.83581 -27.57543,-24.672761 -30.91351,-26.124099 v 0 A 124.90221,124.90221 0 0 0 81.653997,68.185473 C 98.373421,51.059676 136.96452,39.855341 164.64154,47.373275 a 29.433149,29.433149 0 0 1 16.50172,11.276903 c 13.6571,19.389884 -8.82412,39.76668 -38.48949,51.232252 z" />
</svg>
