<svg xmlns="http://www.w3.org/2000/svg" viewBox="0 0 311.3 311.3">
  <path fill="none" stroke="#666666" stroke-width="10" d="M285.1 49.6l-.1-.3-.2-.4-.3-.6-.1-.2-.3-.7-.8-1.5v0a32.7 32.7 0 00-11-11.5A240 240 0 00155.7 5.7c-37.9 0-74.1 8-105.3 23.1a64.6 64.6 0 00-28.1 28.5L10 79.2a34 34 0 0110.7-11.3l3.6-2 .1-.1 1.1-.6.2-.1 1-.5.2-.1 1-.5.2-.1 1-.5.2-.1 1.1-.5.2-.1 1.1-.5h.1c9.6-4.6 19.4-8.3 29.5-11.2l.3-.1 1.2-.3 4.4-1.1.3-.1.9-.2.5-.1.8-.2.5-.1.8-.2c16.4-3.8 35.1-6.3 54.4-6.3 75 0 107.8 16.2 106.4 55l-.1 1.5c-1.7 36.8-19.4 91.5-75.6 134.6l1.2.8c32.1 20.6 62.1-.5 99.6-67.2a255.7 255.7 0 0021.6-50.5l.3-1c1-3.1 1.8-6.2 2.6-9.3l.1-.3c1.8-7.1 3.2-14.3 4.2-21.7l.1-.7.3-2.3.1-1.3.3-3 .2-2.2c.4-4.5.6-9 .7-13.6-.1-3.9-.9-7.8-2.3-11.5z"/>
  <path fill="none" stroke="#666666" stroke-width="10" d="M12.1 75.8l-.2.3-.3.4-.4.5-.1.1-.4.6-.9 1.4V79v.1c-2.6 4.7-4 10.1-4.2 15.5 1 39.5 12.8 80.4 34 118.2 19 33.7 43.8 61.9 72.2 82.1a62.5 62.5 0 0038.1 10.7h24.6a32.3 32.3 0 01-14.9-3.9l-3.5-2.2-.1-.1-1-.7-.2-.1-1-.6-.2-.2-1-.7-.2-.1-1-.7-.2-.2-1-.7-.2-.1-1-.7-.1-.1a190.8 190.8 0 01-24.2-20.6l-.2-.2-.9-.9-3.1-3.3-.2-.2-.6-.7-.3-.3-.6-.6-.4-.4-.5-.6a253.1 253.1 0 01-32.5-45.2c-37.2-66.5-39.9-103.8-6.5-122l1.3-.7c31.8-16.9 86.8-28.5 151.3-.1l.1-1.5c1.3-38.8-31.5-55-106.4-55a247 247 0 00-54.3 6.2l-9.2 2.3-.3.1A170 170 0 0041 57.9l-.6.3-2.1.9-1.1.5-2.7 1.2-2 .9c-4 1.9-7.9 3.9-11.8 6.1a33 33 0 00-8.6 8z"/>
  <path fill="none" stroke="#666666" stroke-width="10" d="M170.6 305.4h.3l.5.1.6.1h.2l.7.1 1.6.1h-.1.1c5.3 0 10.5-1.5 15.2-4a250.6 250.6 0 0082.7-89.3c19-33.7 30.3-69.9 33.1-105.2a66.9 66.9 0 00-10-39.2L283.2 46a33 33 0 014.2 15.2l-.1 4.2v.1l-.1 1.2v.2l-.1 1.2v.3l-.1 1.2v.3l-.1 1.2v.3l-.1 1.2v.2l-.1 1.3v.1c-.9 10.8-2.7 21.4-5.3 31.8l-.1.3-.3 1.2-1.2 4.5-.1.3-.3.9-.1.5-.3.8-.1.5-.2.8c-5 16.5-12.2 34.3-21.9 51.5-37.5 66.7-67.5 87.7-99.6 67.2l-1.2-.8c-30.2-19.9-67.5-63-75.7-134.5l-1.3.7c-33.4 18.2-30.6 55.5 6.8 122.1a251 251 0 0031.8 44.4l.7.8 6.5 7 .2.2c5.1 5.2 10.5 10 16.2 14.6l.5.4 1.8 1.4 1 .8 2.4 1.8 1.7 1.3c3.6 2.6 7.3 5.1 11.1 7.4 3.3 1.5 7.1 2.8 10.9 3.3z"/>
</svg>