<svg version="1.1" viewBox="0 0 24 24" xmlns="http://www.w3.org/2000/svg">
 <path d="m17.788 20.716c1.146 0 3.286-0.424 4.28-3.39 0.483-1.513 0.604-2.845 0.694-5.266l0.023-0.435 9e-3 -0.144c0.131-2.21 0.397-4.233 1.174-4.233v-3.965c-1.206 0-3.406 0.454-4.431 3.511-0.483 1.544-0.603 3.45-0.724 5.266-0.03 0.51-0.066 1.197-0.13 1.89l-0.011 0.125c-0.132 1.364-0.374 2.707-0.884 2.707-0.783 0-1.055-3.148-1.145-4.722-0.09-1.785-0.211-3.783-0.724-5.296-0.964-3.027-3.135-3.48-4.34-3.48-1.206 0-3.316 0.453-4.311 3.48-0.482 1.513-0.603 3.51-0.693 5.296-0.03 0.52-0.077 1.21-0.154 1.903l-0.015 0.126c-0.16 1.363-0.448 2.693-0.977 2.693-0.874 0-1.236-3.36-1.296-4.722-0.09-2.542-0.15-5.296-0.15-8.777h-3.95v0.862c0 1.733 5e-3 3.19 0.034 4.63l7e-3 0.28 6e-3 0.278c0.023 0.883 0.055 1.772 0.104 2.727 0.12 2.36 0.482 4.147 0.844 5.206 0.754 2.3 2.26 3.45 4.401 3.45 2.11 0 3.768-1.332 4.371-3.45 0.422-1.574 0.603-3.39 0.693-5.206 0.04-0.49 0.083-1.18 0.152-1.885l0.013-0.128 0.014-0.129 0.028-0.256c0.149-1.255 0.398-2.414 0.879-2.414 0.844 0 0.994 3.33 1.085 4.812 0.09 1.816 0.18 3.662 0.693 5.206 0.995 3.026 3.226 3.45 4.431 3.45z" fill="#666"/>
</svg>
