<svg version="1.0" viewBox="0 0 48.819 45.375" xmlns="http://www.w3.org/2000/svg">
<path d="m44.592 17.627c-1.3477-1.3584-3.228-2.1824-5.3133-2.1824-4.2706 0-7.6764 3.4758-7.6764 7.6259 0 0.76084 0.32941 2.1931 0.32941 2.8063 0 3.2698-2.6469 5.9147-5.9118 5.9147h-6.3316c-1.2137 0-2.1941 0.9853-2.1941 2.1999v8.5432c0 1.2146 0.98044 2.199 2.1941 2.199h8.5393c1.2156 0 2.1999-0.98433 2.1999-2.199v-6.3355c0-3.2649 2.6489-5.9138 5.9147-5.9138 0.61023 0 2.0454 0.32941 2.8072 0.32941 4.1482 0 7.6201-3.4029 7.6201-7.6716-9.71e-4 -2.0892-0.84052-3.9509-2.1776-5.3162zm-16.364-4.0462c1.2156 0 2.1999-0.98239 2.1999-2.196v-8.5442c0-1.2156-0.98433-2.199-2.1999-2.199h-8.5393c-1.2137 0-2.1941 0.98336-2.1941 2.199v6.5483c0 2.0347-1.5518 3.7828-2.2164 4.4756-0.67242 0.69865-2.473 2.1659-5.3511 2.1708h-7.8766v12.987h12.983v-7.8776c0.0097-2.8791 1.4673-4.6787 2.1669-5.3482 0.69671-0.66853 2.4419-2.2155 4.4737-2.2155h6.5541z" fill="#666" fill-rule="evenodd" stroke-width=".9717"/>
</svg>
