<svg id="logo" version="1.1" xmlns="http://www.w3.org/2000/svg" viewBox="0 0 306.000000 465.000000">
  <g transform="translate(0.000000,465.000000) scale(0.100000,-0.100000)" stroke="none">
      <path d="M0 3200 l0 -1450 218 0 218 0 12 69 c6 39 28 117 47 175 19 58 35
      110 35 115 0 7 -26 11 -65 11 l-65 0 0 471 0 471 498 -5 c526 -5 568 -8 691
      -57 44 -17 55 -17 186 -3 130 13 225 12 349 -4 l49 -6 -28 37 c-73 96 -237
      193 -387 230 l-89 22 58 18 c272 85 444 305 460 591 24 413 -264 699 -760 754
      -59 7 -354 11 -762 11 l-665 0 0 -1450z m1433 1064 c208 -47 330 -177 344
      -369 13 -180 -59 -322 -204 -398 -135 -70 -133 -70 -680 -74 l-493 -4 0 430 0
      431 481 0 c405 0 491 -3 552 -16z" />
      <path d="M1790 2949 c-784 -90 -1355 -756 -1316 -1534 19 -386 162 -712 431
      -980 401 -402 982 -536 1536 -355 184 61 445 216 576 343 l42 40 -106 116
      c-59 64 -112 122 -119 130 -11 12 -19 9 -51 -20 -59 -53 -160 -123 -245 -168
      -589 -319 -1281 -96 -1564 503 -133 282 -135 641 -6 926 47 104 148 247 233
      331 337 334 832 417 1258 213 120 -57 217 -121 298 -198 l65 -60 23 30 c12 16
      64 79 114 139 50 61 91 113 91 116 0 15 -128 123 -213 179 -306 203 -678 291
      -1047 249z" />
  </g>
</svg>