<?xml version="1.0" encoding="UTF-8" standalone="no"?>
<svg
   width="256"
   height="256"
   viewBox="0 0 256 256"
   version="1.1"
   preserveAspectRatio="xMidYMid"
   id="svg12"
   xmlns="http://www.w3.org/2000/svg"
   xmlns:svg="http://www.w3.org/2000/svg"
   xmlns:rdf="http://www.w3.org/1999/02/22-rdf-syntax-ns#"
   xmlns:cc="http://creativecommons.org/ns#"
   xmlns:dc="http://purl.org/dc/elements/1.1/">
  <defs
     id="defs16" />
  <title
     id="title2">Nx</title>
  <path
     id="path4"
     d="M 0.00152276,48.470705 V 207.52929 H 38.931211 l 0.126953,-94.10351 55.388671,89.88672 33.412105,-52.51172 -32.472651,-50.75781 -0.04883,42.64648 -55.964844,-94.218745 z m 95.43359424,0 -0.04883,40.4375 0.0098,0.449219 h 38.880823 l 0.0879,-0.449219 v -40.4375 z m -0.03906,44.46875 36.933583,57.841795 -36.044911,56.74804 h 37.757811 l 16.42773,-25.23437 16.7207,25.23438 h 37.76563 l -34.24414,-53.89062 -0.14844,-0.28906 c -0.47363,-0.97377 -0.73105,-2.03976 -0.75195,-3.125 -0.003,-7.61156 3.02016,-14.91275 8.40234,-20.29493 5.38218,-5.38218 12.68337,-8.40494 20.29492,-8.40234 9.20436,0 13.96289,3.19187 17.00391,6.74414 l 0.30664,0.36914 c 0.0504,0.0616 0.10089,0.12378 0.15039,0.18554 l 0.29102,0.3711 0.28125,0.37304 0.40429,0.55664 0.25586,0.3711 0.3711,0.55273 0.4707,0.72852 1.28906,2.06445 0.4082,0.63086 0.30469,0.44727 0.20313,0.2832 0.20507,0.27539 c 1.7451,2.27293 3.93912,3.7021 6.23438,4.76953 l 0.57617,0.25977 0.57813,0.24609 c 0.0966,0.04 0.19421,0.0781 0.29101,0.11719 l 0.58008,0.23047 0.58203,0.21875 0.57813,0.21289 2.83789,1.00781 0.54687,0.20117 0.53711,0.20703 0.52735,0.21289 c 3.55658,1.47348 6.26431,3.47054 6.38867,8.39454 l 0.004,0.35742 0.01,0.27735 c 0.13358,2.5826 1.58552,4.92566 3.85547,6.1914 2.35102,1.31094 5.22237,1.26729 7.5332,-0.11328 2.23113,-1.33296 3.61157,-3.7173 3.66797,-6.30273 v -0.39453 h 0.0312 l -0.0117,-1.05274 c -0.61925,-31.13559 -26.02628,-57.582035 -57.27374,-57.582035 -19.27727,-0.01336 -37.26552,9.679815 -47.85351,25.789065 l -0.20703,-0.35157 -16.20118,-25.437495 z M 198.52886,124.39453 c -10.71906,0.007 -20.37691,6.47812 -24.46093,16.38867 5.16297,-7.16399 13.74383,-11.0455 22.5332,-10.19335 8.78936,0.85214 16.46368,6.30966 20.1543,14.33203 1.8439,3.04258 5.48119,4.49473 8.91406,3.56054 5.25399,-1.12516 4.89137,3.8445 12.82617,5.52734 l -0.01,-1.41797 c 0,-4.76478 -2.59343,-5.87132 -7.97461,-7.82812 -3.99186,-1.38932 -8.52116,-2.95482 -11.81836,-7.25976 -0.64574,-0.85121 -1.24295,-1.80864 -1.87891,-2.82617 -1.42472,-2.6354 -3.35573,-4.96382 -5.68359,-6.84961 -3.14066,-2.30902 -7.25952,-3.4336 -12.60157,-3.4336 z m -5.02929,9.06055 c -8.96495,0.18268 -16.96273,5.80544 -20.13672,14.25391 5.45436,-8.1568 15.83995,-11.4332 24.98828,-7.88477 4.22668,1.72198 9.78471,4.50083 14.1875,3.01367 -4.18724,-5.87637 -10.9524,-9.37049 -18.16797,-9.38281 -0.29108,-0.006 -0.5819,-0.006 -0.87109,0 z m 62.35351,26.24023 c -0.87708,1.88409 -2.26605,2.79021 -3.70508,3.56641 l -1.20117,0.63476 c -1.18942,0.63869 -2.32551,1.34913 -3.14648,2.61719 -1.11003,1.70553 -0.48461,2.9306 0.21289,3.64648 l 0.16211,0.15625 c 0.0269,0.0245 0.0535,0.0473 0.0801,0.0703 l 0.15625,0.1289 0.14843,0.11133 0.13477,0.0918 0.16602,0.10547 0.11132,0.0625 0.0918,0.043 0.25391,0.0859 0.19531,0.0527 0.23828,0.0488 0.17773,0.0254 0.19336,0.0195 0.20703,0.0117 c 1.24196,0.0286 3.10604,-0.52606 4.42774,-3.58398 1.0998,-2.47666 1.4795,-5.21197 1.0957,-7.89453 z" />
  <metadata
     id="metadata18">
    <rdf:RDF>
      <cc:Work
         rdf:about="">
        <dc:title>Nx</dc:title>
      </cc:Work>
    </rdf:RDF>
  </metadata>
</svg>
