<svg version="1.0" viewBox="0 0 269.29 141.73" xmlns="http://www.w3.org/2000/svg">
<path d="m192.3 130.37h-115.33c-17.298 0-32.873-7.378-43.767-19.149-0.315-0.342-0.624-0.69-0.932-1.038-0.31-0.353-0.62-0.704-0.922-1.064-0.3-0.356-0.593-0.719-0.885-1.081-0.295-0.366-0.586-0.734-0.872-1.109-0.284-0.37-0.562-0.744-0.837-1.123-0.276-0.378-0.549-0.761-0.815-1.146-0.268-0.385-0.529-0.773-0.788-1.166-0.259-0.392-0.511-0.786-0.761-1.185-0.249-0.396-0.493-0.797-0.732-1.2-0.242-0.408-0.477-0.818-0.709-1.233-0.228-0.406-0.454-0.813-0.673-1.226-0.224-0.423-0.44-0.85-0.654-1.278-0.207-0.414-0.415-0.831-0.613-1.252-0.208-0.44-0.405-0.885-0.602-1.33-0.185-0.418-0.37-0.837-0.544-1.26-0.191-0.463-0.372-0.93-0.552-1.398-0.161-0.417-0.323-0.833-0.474-1.256-0.175-0.487-0.337-0.982-0.5-1.476-0.136-0.412-0.274-0.823-0.401-1.237-0.157-0.518-0.3-1.041-0.444-1.562-0.11-0.404-0.226-0.805-0.33-1.211-0.139-0.554-0.262-1.115-0.386-1.675-0.084-0.382-0.176-0.763-0.253-1.147-0.123-0.609-0.226-1.228-0.33-1.843-0.058-0.345-0.124-0.685-0.176-1.028-0.104-0.696-0.187-1.399-0.268-2.102-0.031-0.275-0.073-0.545-0.1-0.821-0.088-0.871-0.151-1.747-0.2-2.628-6e-3 -0.113-0.02-0.224-0.024-0.338-0.051-1.009-0.078-2.025-0.078-3.047 0-0.67 0.026-1.333 0.048-1.997 0.011-0.324 9e-3 -0.65 0.025-0.972 0.027-0.555 0.079-1.107 0.121-1.658 0.033-0.439 0.057-0.879 0.1-1.314 0.051-0.521 0.125-1.034 0.189-1.549 0.057-0.461 0.106-0.924 0.175-1.383 0.075-0.499 0.169-0.992 0.256-1.487 0.082-0.465 0.157-0.934 0.25-1.397 0.097-0.485 0.21-0.962 0.318-1.441 0.105-0.467 0.207-0.934 0.323-1.396 0.117-0.465 0.249-0.926 0.377-1.387 0.13-0.469 0.257-0.938 0.397-1.401 0.137-0.451 0.287-0.894 0.434-1.338 0.153-0.465 0.306-0.93 0.47-1.391 0.157-0.437 0.325-0.867 0.491-1.3 0.176-0.457 0.352-0.916 0.539-1.366 0.175-0.425 0.36-0.843 0.545-1.262 0.198-0.451 0.397-0.899 0.607-1.342 0.194-0.413 0.396-0.819 0.6-1.228 0.22-0.439 0.441-0.875 0.67-1.308 0.213-0.4 0.434-0.799 0.656-1.196 0.237-0.424 0.479-0.847 0.727-1.264 0.233-0.395 0.473-0.785 0.715-1.173 0.253-0.407 0.512-0.809 0.775-1.209 0.255-0.387 0.515-0.771 0.779-1.151 0.268-0.386 0.541-0.769 0.816-1.149 0.279-0.383 0.562-0.761 0.849-1.137 0.276-0.362 0.558-0.719 0.843-1.073 0.305-0.38 0.612-0.759 0.926-1.131 0.281-0.334 0.568-0.663 0.857-0.99 0.334-0.378 0.67-0.757 1.014-1.127 10.891-11.751 26.448-19.113 43.727-19.113h115.34c17.272 0 32.821 7.354 43.71 19.095 0.357 0.385 0.708 0.777 1.054 1.171 0.278 0.314 0.552 0.63 0.821 0.95 0.326 0.382 0.641 0.769 0.95 1.159 0.282 0.348 0.556 0.696 0.825 1.05 0.294 0.38 0.58 0.767 0.861 1.153 0.273 0.376 0.543 0.755 0.809 1.135 0.267 0.384 0.523 0.771 0.781 1.159 0.266 0.4 0.523 0.803 0.777 1.209 0.241 0.386 0.479 0.775 0.712 1.169 0.25 0.42 0.491 0.845 0.732 1.272 0.218 0.393 0.439 0.785 0.648 1.183 0.233 0.439 0.455 0.882 0.681 1.327 0.196 0.4 0.398 0.803 0.591 1.208 0.21 0.451 0.411 0.905 0.612 1.362 0.186 0.413 0.366 0.825 0.539 1.242 0.189 0.461 0.37 0.926 0.548 1.391 0.165 0.425 0.33 0.85 0.482 1.278 0.165 0.467 0.322 0.939 0.476 1.411 0.145 0.439 0.294 0.877 0.431 1.32 0.141 0.469 0.27 0.946 0.402 1.421 0.125 0.453 0.258 0.906 0.37 1.364 0.121 0.471 0.222 0.948 0.33 1.423 0.104 0.473 0.218 0.942 0.314 1.417 0.092 0.471 0.169 0.946 0.253 1.419 0.085 0.489 0.178 0.974 0.25 1.467 0.068 0.463 0.12 0.932 0.177 1.398 0.064 0.511 0.137 1.021 0.189 1.536 0.04 0.435 0.064 0.875 0.101 1.314 0.04 0.551 0.093 1.103 0.121 1.658 0.016 0.322 0.012 0.648 0.023 0.972 0.021 0.664 0.049 1.326 0.049 1.997 0 1.022-0.028 2.039-0.077 3.047-8e-3 0.114-0.02 0.225-0.027 0.338-0.049 0.881-0.113 1.757-0.197 2.628-0.028 0.276-0.068 0.546-0.101 0.821-0.081 0.702-0.161 1.405-0.266 2.102-0.053 0.342-0.121 0.68-0.178 1.02-0.104 0.62-0.209 1.24-0.33 1.854-0.076 0.382-0.169 0.759-0.253 1.139-0.125 0.562-0.246 1.125-0.387 1.681-0.104 0.406-0.222 0.807-0.33 1.211-0.145 0.521-0.286 1.045-0.447 1.562-0.124 0.414-0.266 0.825-0.398 1.237-0.165 0.493-0.326 0.988-0.499 1.476-0.152 0.423-0.313 0.841-0.475 1.258-0.182 0.467-0.362 0.934-0.552 1.395-0.177 0.425-0.362 0.846-0.547 1.266-0.197 0.445-0.395 0.888-0.6 1.326-0.197 0.421-0.407 0.838-0.612 1.252-0.213 0.429-0.431 0.855-0.656 1.278-0.217 0.412-0.442 0.819-0.672 1.226-0.233 0.415-0.467 0.827-0.709 1.233-0.237 0.403-0.482 0.802-0.732 1.196-0.249 0.4-0.503 0.799-0.761 1.193-0.258 0.39-0.519 0.776-0.785 1.161-0.27 0.386-0.543 0.769-0.816 1.146-0.278 0.379-0.556 0.753-0.838 1.123-0.285 0.375-0.579 0.743-0.873 1.109-0.29 0.362-0.584 0.725-0.886 1.081-0.302 0.36-0.611 0.712-0.922 1.064-0.306 0.348-0.615 0.696-0.93 1.038-10.894 11.77-26.467 19.148-43.768 19.148z" fill="#fff"/>
<path d="m198.17-0.061c-34.781 1.242-78.756 8.093-93.023 10.423-0.517 0.143-0.392 0.773 0.047 0.773h87.115c32.922 0 59.621 26.694 59.621 59.632 0 15.794-6.154 30.165-16.189 40.832-0.322 0.334 0.214 0.833 0.499 0.549 16.057-12.126 26.92-30.464 26.92-49.209 0-39.861-30.232-63.042-62.566-63.043-0.806 0-1.615 0.013-2.424 0.043m-165.12 29.435c-16.068 12.115-26.931 30.452-26.931 49.203 0 40.867 31.754 64.19 64.994 63.008 34.785-1.246 78.751-8.095 93.024-10.456 0.512-0.116 0.387-0.748-0.064-0.748h-87.102c-32.917 0-59.623-26.691-59.623-59.613 0-15.815 6.152-30.185 16.188-40.849 0.257-0.268-0.025-0.63-0.289-0.63-0.069 0-0.139 0.024-0.197 0.085" fill="#666"/>
</svg>
