<svg
   viewBox="0 0 200 200"
   version="1.1"
   fill="#DD7523"
   xmlns="http://www.w3.org/2000/svg">
  <path d="M 1.8126277,144.59164 V 55.408354 H 33.051278 q 16.231848,0 24.623407,6.24773 8.39156,6.186485 8.39156,18.191927 0,6.553985 -3.368875,11.57667 -3.368874,4.961439 -9.371595,7.289025 6.860253,1.715064 10.780397,6.921494 3.981397,5.20645 3.981397,12.74047 0,12.86298 -8.207802,19.47822 -8.207803,6.61524 -23.398362,6.73775 z M 20.188305,105.75771 v 24.07214 h 15.741829 q 6.49274,0 10.106623,-3.06261 3.675135,-3.12387 3.675135,-8.57532 0,-12.25045 -12.679217,-12.43421 z m 0,-12.985479 h 13.598 q 13.904263,-0.245009 13.904263,-11.086652 0,-6.06398 -3.552631,-8.697821 -3.491379,-2.695099 -11.086659,-2.695099 H 20.188305 Z"/>
  <path d="m 117.94691,94.916066 q -3.61389,-0.490018 -6.37023,-0.490018 -10.04537,0 -13.169245,6.798992 v 43.3666 H 80.705534 V 78.316698 h 16.721864 l 0.490018,7.901548 q 5.328954,-9.126593 14.761804,-9.126593 2.94011,0 5.5127,0.796286 z" />
  <path d="m 198.18737,133.32122 q -4.96144,5.94148 -14.02678,9.2491 -9.06533,3.24636 -20.09074,3.24636 -11.57667,0 -20.33575,-5.02268 -8.69782,-5.08393 -13.47549,-14.70054 -4.71642,-9.6166 -4.83892,-22.60208 v -6.063978 q 0,-13.352992 4.4714,-23.092094 4.53267,-9.800361 12.98548,-14.945551 8.51407,-5.206448 19.90699,-5.206448 15.86433,0 24.80716,7.59528 8.94283,7.534034 10.59665,21.989566 h -17.88566 q -1.22505,-7.656538 -5.45146,-11.209169 -4.16515,-3.552631 -11.51542,-3.552631 -9.37159,0 -14.27177,7.044016 -4.90018,7.044003 -4.96144,20.948272 v 5.696457 q 0,14.02677 5.32895,21.19328 5.32894,7.16652 15.61932,7.16652 10.35164,0 14.7618,-4.41017 V 111.27041 H 163.08982 V 97.73367 h 35.09755 z" />
</svg>
