<svg viewBox="0, 0, 400,400" version="1.1" xmlns="http://www.w3.org/2000/svg">
    <path
       d="M 206.65794,9.8215463 C 360.06769,45.295019 412.66945,234.44463 298.90501,341.53622 232.62906,403.92614 124.23911,411.76286 54.842699,359.18308 l -3.098481,-2.34843 30.104151,-35.86531 c 16.556705,-19.72502 31.363721,-37.33049 32.903911,-39.12027 l 2.80104,-3.25625 8.02295,4.05027 c 61.68771,31.14 134.63263,-16.66534 131.87298,-86.42383 -2.54759,-64.37368 -68.94898,-106.527762 -127.19423,-80.74803 -5.63183,2.49327 -10.87829,4.81195 -11.65809,5.15465 -0.77979,0.34139 -16.1403,-16.94337 -34.133732,-38.411601 L 51.746805,43.180655 54.843992,40.767565 C 91.342965,12.344559 158.42974,-1.3309176 206.65794,9.8215463"
       fill="#666"
       style="stroke-width:1.29319" />
</svg>
