<svg version="1.1" viewBox="0 0 160 160" xmlns="http://www.w3.org/2000/svg"><g transform="matrix(1.3333 0 0 -1.3333 -376.89 116.2)"><path d="m321.58 52.423c0-7.5898 1.6076-14.017 4.627-19.096-14.376-2.8732-22.736-14.176-22.736-31.459 0-12.977 4.7166-22.597 13.16-27.788 4.6535-2.8632 10.443-4.3978 17.209-4.3978 18.727 0 29.914 12.034 29.914 32.186 0 7.623-1.518 14.027-4.3978 19.072 14.223 2.8366 22.504 14.147 22.504 31.482 0 12.977-4.3944 22.444-12.472 27.625-4.6402 2.9861-10.496 4.5638-17.445 4.5638-19.016 0-30.362-12.037-30.362-32.189m24.198-20.252c-0.0598 0.01993-0.12954 0.04318-0.19265 0.06975-0.10629 0.03322-0.21591 0.07308-0.32552 0.11626-6.8424 2.6008-10.639 9.5827-10.639 20.029 0 13.655 6.1382 21.172 17.285 21.172 5.3045 0 9.3103-1.4083 12.097-4.318 3.3149-3.4544 4.9126-9.0114 4.9126-16.854 0-13.452-6.2014-21.165-17.01-21.165-2.2487 0-4.2915 0.32551-6.1283 0.94997m-23.719-47.186c-3.5972 3.5939-5.5404 9.2871-5.5404 16.747 0 13.655 6.1382 21.175 17.279 21.175 2.5078 0 4.7266-0.31887 6.6631-0.95661 7.0284-2.3185 10.35-8.8952 10.35-20.218 0-13.452-6.208-21.172-17.013-21.172-4.8893 0-8.8486 1.5445-11.738 4.4243" fill="#666"/></g></svg>
